<svg width="24" height="25" viewBox="0 0 24 25" fill="none" xmlns="http://www.w3.org/2000/svg">
<path fill-rule="evenodd" clip-rule="evenodd" d="M18.1451 9.92708C17.7931 10.3667 14.6341 14.2219 12.0111 14.2219C9.39107 14.2219 6.20007 10.3698 5.84407 9.9302C5.57807 9.59999 5.61807 9.10728 5.93507 8.82916C6.25107 8.54999 6.72407 8.59374 6.99107 8.92291C8.16207 10.3677 10.5591 12.6594 12.0111 12.6594C13.4621 12.6594 15.8371 10.3698 16.9931 8.92603C17.2581 8.59583 17.7311 8.55208 18.0491 8.82603C18.3671 9.10312 18.4101 9.59583 18.1451 9.92708ZM12.0001 2.48228C4.59907 2.48228 1.97607 5.10312 1.97607 12.5C1.97607 19.8958 4.59907 22.5177 12.0001 22.5177C19.4011 22.5177 22.0241 19.8958 22.0241 12.5C22.0241 5.10312 19.4011 2.48228 12.0001 2.48228Z" fill="black"/>
</svg>
